<?xml version="1.0" encoding="utf-8"?>
<!-- Generator: Adobe Illustrator 19.0.0, SVG Export Plug-In . SVG Version: 6.00 Build 0)  -->
<svg version="1.1"
	 id="Layer_1" xmlns:svg="http://www.w3.org/2000/svg" xmlns:rdf="http://www.w3.org/1999/02/22-rdf-syntax-ns#" xmlns:sodipodi="http://sodipodi.sourceforge.net/DTD/sodipodi-0.dtd" xmlns:inkscape="http://www.inkscape.org/namespaces/inkscape" xmlns:cc="http://creativecommons.org/ns#" xmlns:dc="http://purl.org/dc/elements/1.1/"
	 xmlns="http://www.w3.org/2000/svg" xmlns:xlink="http://www.w3.org/1999/xlink" x="0px" y="0px" viewBox="-255 334 100 125"
	 style="enable-background:new -255 334 100 125;" xml:space="preserve">
<style type="text/css">
	.st0{fill:#61DAFB;stroke:#000000;stroke-miterlimit:10;}
</style>
<g transform="translate(0,-952.36218)">
	<path class="st0" d="M-220.4,1304.9c-1.3,0-2.4,1.1-2.3,2.4c0,0.8,0.4,1.5,1.1,2c1.7,1.1,2.9,3.1,2.9,5.3s-1.1,4.2-2.9,5.3
		c-1.1,0.7-1.5,2.1-0.8,3.2c0.7,1.1,2.1,1.5,3.2,0.8c0.1,0,0.1-0.1,0.2-0.1c3-2,5-5.4,5-9.3c0-3.9-2-7.3-5-9.3
		C-219.4,1305-219.9,1304.9-220.4,1304.9z M-207,1304.9c-1.3,0-2.3,1.1-2.3,2.4c0,0.8,0.4,1.5,1.1,1.9c1.7,1.1,2.8,3.1,2.8,5.3
		s-1.1,4.2-2.8,5.3c-1.1,0.7-1.5,2.1-0.8,3.2c0.7,1.1,2.1,1.5,3.2,0.8c0.1,0,0.1-0.1,0.2-0.1c3-2,5-5.4,5-9.3c0-3.9-2-7.3-5-9.3
		C-206.1,1305-206.6,1304.9-207,1304.9z M-193.7,1304.9c-1.3,0-2.4,1.1-2.3,2.4c0,0.8,0.4,1.5,1.1,2c1.7,1.1,2.9,3.1,2.9,5.3
		s-1.1,4.2-2.9,5.3c-1.1,0.7-1.5,2.1-0.8,3.2c0.7,1.1,2.1,1.5,3.2,0.8c0.1,0,0.1-0.1,0.2-0.1c3-2,5-5.4,5-9.3c0-3.9-2-7.3-5-9.3
		C-192.8,1305-193.2,1304.9-193.7,1304.9z M-227.2,1329.2c-1.3,0-2.4,1.1-2.4,2.4c0,0.1,0,0.2,0,0.3l7.9,54.5
		c0.7,4.8,4.9,8.5,9.8,8.5h13.7c4.9,0,9.1-3.7,9.8-8.5l7.9-54.5c0.2-1.3-0.7-2.5-2-2.7c-0.1,0-0.2,0-0.3,0H-227.2L-227.2,1329.2z
		 M-224.5,1333.9h38.9l-2,14.1h-34.8C-222.4,1348-224.5,1333.9-224.5,1333.9z M-221.8,1352.7h33.5l-4.8,33c-0.3,2.4-2.8,4.5-5.1,4.5
		h-13.7c-2.3,0-4.8-2.1-5.1-4.5l-2.3-15.5h22.8c1.3,0,2.4-1,2.4-2.3s-1-2.4-2.3-2.4c0,0,0,0-0.1,0h-23.4L-221.8,1352.7z"/>
</g>
</svg>
